<svg width="31" height="36" viewBox="0 0 31 36" fill="none" xmlns="http://www.w3.org/2000/svg">
<path d="M31 35.0322L27.1924 31.7164L25.0461 29.7454L22.7768 27.6638L23.7092 30.9041H3.63052C1.6197 30.897 -0.00513387 29.2819 1.219e-05 27.2954L1.219e-05 3.63723C-0.00307346 1.65216 1.62116 0.0393355 3.63052 0.0322266L27.3695 0.0322266C29.3789 0.0393355 31.0031 1.65216 31 3.63723V35.0322ZM22.5624 19.3891C21.7762 20.4308 20.6442 21.1663 19.3645 21.467C19.8904 22.1301 20.5243 22.8799 20.5299 22.8872C22.6689 22.9319 24.6942 21.938 25.9505 20.2272C25.8862 16.6806 25.0143 13.1939 23.3996 10.0256C21.9781 8.92364 20.2477 8.2805 18.4434 8.18354H18.4229L18.1749 8.46354C19.7865 8.89119 21.2895 9.64801 22.5866 10.6851C20.9361 9.78876 19.1248 9.21817 17.2537 9.00512C16.0645 8.87464 14.8637 8.88639 13.6773 9.04012C13.5934 9.04176 13.5098 9.05039 13.4274 9.06591H13.3752C11.9848 9.22406 10.6282 9.59703 9.35502 10.1712C8.71731 10.4604 8.32573 10.6704 8.30895 10.6778C8.29217 10.6851 8.30895 10.6778 8.30895 10.6649C9.68486 9.59578 11.2722 8.82331 12.9687 8.39723L12.7823 8.18723H12.7711C10.9668 8.28442 9.23649 8.92753 7.81481 10.0293C6.19425 13.1954 5.32206 16.6835 5.26396 20.2309C6.50458 21.9531 8.53271 22.9507 10.6715 22.8909C10.6715 22.8909 11.339 22.0878 11.8593 21.4375C10.6118 21.1278 9.51263 20.3982 8.75087 19.3743C8.76392 19.3835 8.94853 19.507 9.24687 19.6691C9.26691 19.6923 9.29169 19.7112 9.31959 19.7243C9.34322 19.7405 9.36817 19.7547 9.39418 19.7667C9.42367 19.7799 9.45177 19.796 9.47809 19.8146C9.89412 20.0411 10.3259 20.2381 10.7703 20.4041C11.6151 20.7345 12.489 20.9874 13.3808 21.1593C14.1616 21.3048 14.9544 21.3788 15.7489 21.3804C16.4939 21.3803 17.2373 21.3125 17.9698 21.1778C18.8518 21.0247 19.7133 20.7726 20.5374 20.4262C21.2492 20.1557 21.9284 19.8079 22.5624 19.3891ZM18.7622 18.6025C17.951 18.6724 17.1795 18.2431 16.8195 17.5215C16.4594 16.7999 16.5847 15.934 17.135 15.3409C17.6852 14.7479 18.5476 14.5493 19.3065 14.841C20.0655 15.1326 20.5654 15.8546 20.5654 16.6591C20.6064 17.6868 19.8004 18.5547 18.7604 18.6025H18.7622ZM12.2956 18.6025C11.2753 18.5146 10.4924 17.6708 10.4924 16.6591C10.4924 15.6473 11.2753 14.8035 12.2956 14.7156C12.7656 14.7171 13.2149 14.9065 13.5412 15.2406C13.9114 15.6203 14.1128 16.1302 14.1006 16.6572C14.1437 17.6867 13.3357 18.5567 12.2937 18.6025H12.2956Z" fill="white"/>
</svg>
