<svg width="36" height="33" viewBox="0 0 36 33" fill="none" xmlns="http://www.w3.org/2000/svg">
<path fill-rule="evenodd" clip-rule="evenodd" d="M32.853 0.11214C32.4465 0.197933 32.1049 0.325997 30.3745 1.04156C28.5973 1.77652 24.4865 3.48737 24.0658 3.66714C23.9048 3.73599 22.9415 4.13837 21.9254 4.5613C20.1035 5.31959 8.37976 10.2114 5.00456 11.6217C4.05037 12.0203 2.9655 12.4719 2.59373 12.6251C1.50598 13.0735 1.08339 13.3194 0.665344 13.7473C-0.194937 14.6277 -0.223732 15.9334 0.595048 16.9319C0.83212 17.221 1.38021 17.6393 1.76856 17.8276C1.92497 17.9034 3.59411 18.4793 5.47771 19.1075C7.36131 19.7356 8.91451 20.2636 8.92925 20.2808C8.94398 20.2979 9.26582 21.3174 9.64438 22.5462C11.5481 28.7252 11.6581 29.0557 11.9968 29.6139C12.208 29.9619 12.5604 30.312 12.8418 30.4534C13.2021 30.6345 13.7207 30.7188 14.1078 30.6593C14.4969 30.5994 14.8546 30.4689 15.0868 30.3021C15.1847 30.2317 15.6482 29.8271 16.1167 29.4029C18.2661 27.4569 19.1701 26.6575 19.2169 26.6615C19.2448 26.6639 20.1089 27.3061 21.1373 28.0885C26.4238 32.1108 25.9649 31.7885 26.6849 31.9847C27.0829 32.0931 28.0724 32.0905 28.4819 31.98C29.169 31.7946 29.7586 31.402 30.1789 30.8499C30.652 30.2287 30.6208 30.3404 31.3436 26.6763C31.7044 24.8471 32.0692 22.9986 32.1543 22.5686C32.3205 21.7279 33.3751 16.3764 33.6643 14.9053C33.7609 14.4138 34.1969 12.2019 34.633 9.99007C35.0692 7.77822 35.5457 5.36123 35.6921 4.61899C35.8384 3.87675 35.9712 3.12271 35.9873 2.94335C36.128 1.37128 35.0842 0.127333 33.574 0.0673673C33.314 0.0570453 33.0308 0.0746507 32.853 0.11214ZM33.1875 2.98593C33.1779 3.02892 33.1301 3.27522 33.0814 3.53326C33.0328 3.79131 32.7172 5.39993 32.3801 7.10797C31.5487 11.3211 28.9738 24.372 28.5055 26.7465C28.2971 27.8033 28.1126 28.7483 28.0954 28.8466C28.0552 29.0775 27.9627 29.2566 27.8535 29.3145C27.7218 29.3844 27.4825 29.3696 27.3086 29.2808C27.1881 29.2193 23.9292 26.7635 21.0692 24.5791C19.1337 23.1008 19.0623 23.0506 18.9844 23.1119C18.9425 23.1448 17.9059 24.0766 16.6808 25.1825C14.4148 27.2282 14.1071 27.5024 14.1071 27.4756C14.1071 27.4542 15.0905 21.2349 15.1203 21.0678C15.1399 20.9577 15.3746 20.7181 16.2806 19.8836C16.9052 19.3082 17.7421 18.5358 18.1401 18.1672C18.5382 17.7986 20.0293 16.4221 21.4536 15.1083C22.878 13.7945 24.165 12.6062 24.3137 12.4676C24.4624 12.329 25.0606 11.7765 25.643 11.2399C27.7055 9.33974 27.9233 9.13773 28.362 8.71712C28.8554 8.24409 28.9351 8.12801 28.8999 7.93381C28.8463 7.638 28.629 7.57125 28.2233 7.72599C28.1053 7.77098 27.5424 8.0957 26.9724 8.44759C26.4023 8.79947 24.699 9.84587 23.1871 10.773C21.6753 11.7 20.0632 12.6892 19.6047 12.9711C18.7971 13.4677 15.6737 15.3838 12.6599 17.2316C11.726 17.8041 11.1673 18.1212 11.1277 18.101C11.0934 18.0836 9.2911 17.48 7.12248 16.7598C4.95386 16.0395 3.16359 15.4365 3.14408 15.4196C3.12457 15.4028 4.89889 14.6424 7.08702 13.7299C10.8014 12.1808 13.9215 10.879 20.889 7.97081C26.5871 5.59247 27.4292 5.2417 30.2617 4.06719C31.8478 3.40945 33.1589 2.87954 33.1753 2.88955C33.1916 2.89956 33.1971 2.94295 33.1875 2.98593Z" fill="white"/>
</svg>
